<svg width="135" height="46" fill="none" xmlns="http://www.w3.org/2000/svg">
    <path d="M42.42.48h4c2.95 0 6.02.79 6.02 5.64 0 4.86-3.07 5.66-6.02 5.66h-4V.48Zm4 9.36c1.97 0 3.8-.2 3.8-3.72 0-3.53-1.85-3.7-3.8-3.7h-1.78v7.42h1.78ZM57.65 3.57c2.6 0 4.16 1.48 4.16 4v.61h-6.15c.1 1.29.79 2.12 2.09 2.12 1.09 0 1.77-.51 1.98-1.36h2.1c-.26 1.64-1.59 2.99-4.07 2.99-2.67 0-4.2-1.8-4.2-4.24 0-2.6 1.69-4.12 4.09-4.12Zm2.1 3.4c-.1-1.17-.88-1.8-2.05-1.8s-1.94.65-2.02 1.8h4.07ZM62.5 9.92h2.23V1.84h-1.81V0h2.82c.72 0 1.12.39 1.12 1.09v8.83h2.24v1.85h-6.6V9.92ZM70.05 9.92h2.24V5.59h-1.83V3.73h2.62c.75 0 1.17.37 1.17 1.16v5.03h2.26v1.85h-6.46V9.92ZM73.07.26c.82 0 1.43.45 1.43 1.23 0 .79-.6 1.24-1.43 1.24-.82 0-1.38-.44-1.38-1.24S72.25.26 73.07.26ZM77.03 7.74c0-2.3 1.27-4.17 3.62-4.17 1.93 0 2.8 1.01 3.2 2.15h.54L84 4.45v-.72h2.12v10.1c0 .8-.44 1.2-1.27 1.2h-6.52v-1.86H84v-2.11l.39-1.27h-.55c-.38 1.14-1.26 2.15-3.19 2.15-2.35 0-3.62-1.87-3.62-4.2Zm4.52 2.34c1.48 0 2.45-.69 2.45-2.34s-.97-2.3-2.45-2.3c-1.47 0-2.4.68-2.4 2.3 0 1.62.93 2.34 2.4 2.34ZM87.6 0h2.12v4.86l-.4 1.25h.56c.33-1.45 1.37-2.54 3.09-2.54 1.97 0 3.15 1.32 3.15 3.67v4.54H94V7.55c0-1.54-.5-2.12-1.78-2.12-1.53 0-2.5.98-2.5 3.2v3.15H87.6V0ZM103.77 11.77h-3.78c-.83 0-1.27-.43-1.27-1.26V5.59h-1.85V3.73h1.85V2.02l2.12-.66v2.37h2.61V5.6h-2.61v4.34l2.93-.01v1.85ZM108.54 3.57c2.6 0 4.17 1.48 4.17 4v.61h-6.15c.1 1.29.78 2.12 2.08 2.12 1.09 0 1.78-.51 1.98-1.36h2.1c-.25 1.64-1.58 2.99-4.06 2.99-2.68 0-4.2-1.8-4.2-4.24 0-2.6 1.68-4.12 4.08-4.12Zm2.1 3.4c-.1-1.17-.88-1.8-2.05-1.8s-1.94.65-2.02 1.8h4.07ZM115.43 3.73h5V5.6h-4.15v6.18h-2.13V4.98c0-.83.45-1.25 1.28-1.25ZM120.96 8.84h2.11c0 1.04.68 1.54 1.96 1.54.94 0 1.38-.25 1.38-.85 0-.4-.26-.63-.87-.81l-2.35-.64c-.88-.26-1.96-.83-1.96-2.2 0-1.49 1.28-2.3 3.4-2.3 2.3 0 3.75.97 3.75 2.83h-2.11c0-.88-.55-1.3-1.63-1.3-.81 0-1.3.26-1.3.77 0 .4.33.66.97.83l1.87.49c1.31.33 2.36.97 2.36 2.37 0 1.52-1.19 2.37-3.54 2.37-2.62 0-4.04-1.07-4.04-3.1ZM42.08 22.63c0-3.32 2.14-5.85 5.69-5.85 3.07 0 5.12 1.75 5.46 4.57h-2.3c-.23-1.62-1.4-2.57-3.15-2.57-2.13 0-3.41 1.41-3.41 3.85 0 2.43 1.28 3.86 3.41 3.86 1.75 0 2.92-.97 3.16-2.59h2.29c-.34 2.84-2.39 4.59-5.46 4.59-3.55 0-5.7-2.54-5.7-5.87v.01ZM58.74 20.08c2.52 0 4.42 1.54 4.42 4.17 0 2.62-1.9 4.2-4.42 4.2s-4.44-1.55-4.44-4.2c0-2.66 1.9-4.17 4.44-4.17Zm0 6.5c1.43 0 2.29-.92 2.29-2.33 0-1.41-.86-2.31-2.3-2.31-1.42 0-2.31.91-2.31 2.3 0 1.4.86 2.35 2.32 2.35ZM64.55 20.24h2.12v1.12l-.39 1.25h.55c.32-1.44 1.31-2.53 3.04-2.53 1.97 0 3.22 1.25 3.22 3.66v4.55h-2.13v-4.23c0-1.54-.52-2.12-1.8-2.12-1.47 0-2.5.93-2.5 3.16v3.19h-2.1v-8.05ZM74.21 20.24h1.6v-.62c0-1.95 1.1-3.1 3.53-3.1h1.37v1.83h-1.6c-.85 0-1.17.4-1.17 1.33v.56h2.32v1.86h-2.32v4.33h2.32v1.85h-6.05v-1.85h1.6V22.1h-1.6v-1.86ZM85.22 20.08c2.6 0 4.16 1.48 4.16 3.99v.62h-6.15c.1 1.29.78 2.12 2.08 2.12 1.1 0 1.78-.51 1.99-1.37h2.1c-.26 1.65-1.6 3-4.07 3-2.68 0-4.2-1.8-4.2-4.25 0-2.6 1.68-4.11 4.09-4.11Zm2.1 3.4c-.1-1.17-.89-1.81-2.06-1.81-1.16 0-1.93.66-2.01 1.8h4.06ZM92.1 20.24h5v1.86h-4.15v6.18h-2.13v-6.8c0-.82.45-1.24 1.29-1.24ZM101.52 20.08c2.6 0 4.17 1.48 4.17 3.99v.62h-6.15c.1 1.29.78 2.12 2.08 2.12 1.09 0 1.78-.51 1.99-1.37h2.1c-.26 1.65-1.6 3-4.07 3-2.68 0-4.2-1.8-4.2-4.25 0-2.6 1.68-4.11 4.08-4.11Zm2.1 3.4c-.1-1.17-.88-1.81-2.05-1.81s-1.93.66-2.02 1.8h4.07ZM107.1 20.24h2.11v1.12l-.38 1.25h.55c.32-1.44 1.3-2.53 3.04-2.53 1.97 0 3.22 1.25 3.22 3.66v4.55h-2.13v-4.23c0-1.54-.52-2.12-1.8-2.12-1.47 0-2.5.93-2.5 3.16v3.19h-2.11v-8.05ZM121.15 20.08c1.99 0 3.97 1.1 4.12 3.4h-2.13c-.15-1.01-.91-1.54-1.99-1.54-1.36 0-2.18.94-2.18 2.3 0 1.37.82 2.35 2.18 2.35 1.08 0 1.84-.53 1.99-1.54h2.13c-.15 2.29-2.13 3.4-4.12 3.4-2.58 0-4.3-1.63-4.3-4.2 0-2.58 1.72-4.17 4.3-4.17ZM130.38 20.08c2.6 0 4.16 1.48 4.16 3.99v.62h-6.15c.1 1.29.79 2.12 2.08 2.12 1.1 0 1.78-.51 1.99-1.37h2.1c-.26 1.65-1.59 3-4.07 3-2.68 0-4.2-1.8-4.2-4.25 0-2.6 1.68-4.11 4.09-4.11Zm2.1 3.4c-.1-1.17-.88-1.81-2.05-1.81s-1.94.66-2.02 1.8h4.07ZM47.23 33.3c2.65 0 4.44 1.32 4.44 3.87 0 3.6-3.95 4.87-8.87 5.64v.6l1.68-.56h7.19v1.94h-9.44v-3.78c2.79-.24 7.21-1.09 7.21-3.89 0-1.09-.62-1.89-2.23-1.89-1.88 0-2.9 1.01-2.9 3.51h-2.24c0-3.89 2.28-5.45 5.16-5.45ZM52.83 39.14c0-3.45 1.93-5.85 5.31-5.85s5.3 2.4 5.3 5.85c0 3.44-1.95 5.86-5.3 5.86-3.34 0-5.31-2.4-5.31-5.86Zm2.5 1.9 4.7-5.18a2.8 2.8 0 0 0-1.88-.64c-1.97 0-3.1 1.44-3.1 3.92 0 .72.1 1.36.28 1.9Zm2.81 2.02c1.97 0 3.06-1.4 3.06-3.92 0-.72-.1-1.35-.27-1.89l-4.7 5.19c.5.4 1.14.62 1.91.62ZM69.87 33.3c2.64 0 4.44 1.32 4.44 3.87 0 3.6-3.96 4.87-8.88 5.64v.6l1.68-.56h7.2v1.94h-9.44v-3.78c2.78-.24 7.2-1.09 7.2-3.89 0-1.09-.62-1.89-2.22-1.89-1.89 0-2.91 1.01-2.91 3.51H64.7c0-3.89 2.27-5.45 5.16-5.45ZM80.8 33.3c2.64 0 4.43 1.32 4.43 3.87 0 3.6-3.95 4.87-8.87 5.64v.6l1.68-.56h7.19v1.94h-9.44v-3.78c2.79-.24 7.21-1.09 7.21-3.89 0-1.09-.62-1.89-2.23-1.89-1.88 0-2.9 1.01-2.9 3.51h-2.24c0-3.89 2.28-5.45 5.16-5.45ZM18.54 9.11c0-5.2 2.47-8.7 6.82-8.7h11.12V27.5h-8.67V9.1h-.19c-.46.01-.4.52-.4 1.06V36.1h.18c.38 0 .41-.48.41-1v-7.02h8.67v8c0 5.2-2.47 8.69-6.86 8.69H18.54V9.1ZM0 .42h17.94v35.84c0 4.8-2.29 8.52-5.52 8.52H0V.42Zm8.67 8.67v27.02h.34c.15 0 .26-.42.26-.83V9.09h-.6Z"
          fill="#000F9F"/>
</svg>
